<svg xmlns="http://www.w3.org/2000/svg" xmlns:xlink="http://www.w3.org/1999/xlink" width="2000" zoomAndPan="magnify" viewBox="0 0 1500 1499.999933" height="2000" preserveAspectRatio="xMidYMid meet" version="1.0"><defs><g/><clipPath id="171c91df21"><path d="M 750 0 C 335.785156 0 0 335.785156 0 750 C 0 1164.214844 335.785156 1500 750 1500 C 1164.214844 1500 1500 1164.214844 1500 750 C 1500 335.785156 1164.214844 0 750 0 Z M 750 0 " clip-rule="nonzero"/></clipPath><clipPath id="61638c9c7f"><path d="M 0 0 L 1500 0 L 1500 1500 L 0 1500 Z M 0 0 " clip-rule="nonzero"/></clipPath><clipPath id="d85fb2975b"><path d="M 750 0 C 335.785156 0 0 335.785156 0 750 C 0 1164.214844 335.785156 1500 750 1500 C 1164.214844 1500 1500 1164.214844 1500 750 C 1500 335.785156 1164.214844 0 750 0 Z M 750 0 " clip-rule="nonzero"/></clipPath><clipPath id="b8afd836a8"><rect x="0" width="1500" y="0" height="1500"/></clipPath><clipPath id="b1ce63ce87"><path d="M 0.71875 336 L 941 336 L 941 1176 L 0.71875 1176 Z M 0.71875 336 " clip-rule="nonzero"/></clipPath><clipPath id="ff23579fa5"><rect x="0" width="984" y="0" height="1500"/></clipPath><clipPath id="2b6b3566f5"><path d="M 526.722656 530.769531 L 978.972656 530.769531 L 978.972656 983 L 526.722656 983 Z M 526.722656 530.769531 " clip-rule="nonzero"/></clipPath></defs><g clip-path="url(#171c91df21)"><g transform="matrix(1, 0, 0, 1, 0, 0.000000000000112861)"><g clip-path="url(#b8afd836a8)"><g clip-path="url(#61638c9c7f)"><g clip-path="url(#d85fb2975b)"><rect x="-330" width="2160" fill="#000000" height="2159.999904" y="-329.999985" fill-opacity="1"/></g></g></g></g></g><g transform="matrix(1, 0, 0, 1, 282, 0.000000000000112861)"><g clip-path="url(#ff23579fa5)"><g clip-path="url(#b1ce63ce87)"><g fill="#ffffff" fill-opacity="1"><g transform="translate(0.725546, 1175.271959)"><g><path d="M 939.65625 -635.96875 L 939.65625 -622.25 C 939.65625 -590.601562 930.125 -557.238281 911.0625 -522.15625 C 908.394531 -517.957031 905.535156 -513.664062 902.484375 -509.28125 C 899.429688 -504.90625 896 -500.425781 892.1875 -495.84375 C 885.707031 -488.21875 879.796875 -481.832031 874.453125 -476.6875 C 869.117188 -471.539062 864.351562 -467.441406 860.15625 -464.390625 C 851.007812 -457.523438 842.71875 -451.804688 835.28125 -447.234375 C 827.84375 -442.660156 821.078125 -439.421875 814.984375 -437.515625 C 810.023438 -434.847656 804.78125 -432.65625 799.25 -430.9375 C 793.71875 -429.21875 788.09375 -427.597656 782.375 -426.078125 C 773.988281 -424.171875 766.363281 -422.644531 759.5 -421.5 C 752.632812 -420.351562 746.535156 -419.78125 741.203125 -419.78125 L 741.203125 -419.21875 C 758.742188 -419.21875 779.523438 -415.019531 803.546875 -406.625 C 817.265625 -401.675781 833.847656 -392.71875 853.296875 -379.75 C 857.109375 -377.082031 860.632812 -374.316406 863.875 -371.453125 C 867.113281 -368.597656 870.257812 -365.835938 873.3125 -363.171875 C 886.65625 -350.203125 895.804688 -339.710938 900.765625 -331.703125 C 910.296875 -318.742188 918.300781 -304.640625 924.78125 -289.390625 C 934.695312 -261.941406 939.65625 -237.921875 939.65625 -217.328125 L 939.65625 -203.03125 C 939.65625 -173.675781 931.265625 -142.21875 914.484375 -108.65625 C 911.816406 -104.84375 909.242188 -100.9375 906.765625 -96.9375 C 904.285156 -92.9375 901.523438 -88.835938 898.484375 -84.640625 C 854.628906 -28.210938 796.671875 0 724.609375 0 L 0.578125 0 L 0 -0.578125 L 0 -838.421875 L 736.625 -838.421875 C 762.9375 -838.421875 790.390625 -831.941406 818.984375 -818.984375 C 832.328125 -812.878906 846.050781 -804.300781 860.15625 -793.25 C 866.632812 -788.289062 872.828125 -782.757812 878.734375 -776.65625 C 884.648438 -770.5625 890.660156 -763.890625 896.765625 -756.640625 C 908.960938 -739.097656 917.726562 -724.039062 923.0625 -711.46875 C 934.125 -684.007812 939.65625 -658.84375 939.65625 -635.96875 Z M 939.65625 -635.96875 "/></g></g></g></g></g></g><g clip-path="url(#2b6b3566f5)"><path fill="#000000" d="M 978.832031 756.824219 C 782.128906 756.824219 752.777344 786.222656 752.777344 982.878906 C 752.777344 786.222656 723.429688 756.824219 526.722656 756.824219 C 723.429688 756.824219 752.777344 727.425781 752.777344 530.769531 C 752.777344 727.472656 782.175781 756.824219 978.832031 756.824219 Z M 978.832031 756.824219 " fill-opacity="1" fill-rule="nonzero"/></g></svg>