<svg xmlns="http://www.w3.org/2000/svg" viewBox="0 0 24 24" fill="none">
  <circle cx="12" cy="12" r="10.5" stroke="#ffffff" stroke-width="1.25"/>
  <path fill="#ffffff" d="M8.25 6.75h4.1c2.15 0 3.55 1.15 3.55 2.95 0 1.15-.55 2-1.45 2.45 1.1.45 1.85 1.35 1.85 2.75 0 2.05-1.55 3.35-3.95 3.35H8.25V6.75zm2.1 4.65h1.75c.85 0 1.35-.45 1.35-1.15s-.5-1.15-1.35-1.15h-1.75v2.3zm0 4.55h2c1 0 1.6-.5 1.6-1.3 0-.8-.6-1.3-1.6-1.3h-2v2.6z"/>
  <path fill="#ffffff" d="M12 15.75l1.05 2.1 2.35.35-1.7 1.65.4 2.35L12 20.4l-2.1 1.1.4-2.35-1.7-1.65 2.35-.35z"/>
</svg>
