<svg xmlns="http://www.w3.org/2000/svg" xmlns:xlink="http://www.w3.org/1999/xlink" width="2000" zoomAndPan="magnify" viewBox="0 0 1500 1499.999933" height="2000" preserveAspectRatio="xMidYMid meet" version="1.0"><path fill="#000000" d="M 757.992188 11.429688 C 746.996094 11.386719 736 11.589844 725.011719 12.035156 C 714.023438 12.476562 703.050781 13.164062 692.09375 14.09375 C 681.136719 15.023438 670.203125 16.195312 659.296875 17.605469 C 648.390625 19.019531 637.519531 20.671875 626.6875 22.5625 C 615.855469 24.457031 605.066406 26.585938 594.328125 28.957031 C 583.589844 31.324219 572.910156 33.929688 562.285156 36.773438 C 551.660156 39.613281 541.105469 42.6875 530.617188 45.996094 C 520.128906 49.304688 509.71875 52.84375 499.386719 56.609375 C 489.054688 60.378906 478.8125 64.371094 468.65625 68.59375 C 458.5 72.8125 448.445312 77.257812 438.484375 81.921875 C 428.527344 86.585938 418.675781 91.46875 408.933594 96.570312 C 399.1875 101.671875 389.5625 106.984375 380.054688 112.507812 C 370.546875 118.035156 361.164062 123.769531 351.910156 129.707031 C 342.65625 135.648438 333.535156 141.789062 324.550781 148.132812 C 315.570312 154.476562 306.730469 161.015625 298.035156 167.75 C 289.339844 174.484375 280.800781 181.40625 272.410156 188.519531 C 264.023438 195.628906 255.792969 202.921875 247.726562 210.398438 C 239.660156 217.871094 231.765625 225.523438 224.035156 233.347656 C 216.308594 241.171875 208.757812 249.160156 201.382812 257.320312 C 194.007812 265.476562 186.816406 273.792969 179.808594 282.269531 C 172.800781 290.746094 165.980469 299.371094 159.355469 308.148438 C 152.730469 316.925781 146.300781 325.84375 140.066406 334.90625 C 133.835938 343.964844 127.804688 353.160156 121.980469 362.488281 C 116.15625 371.8125 110.539062 381.265625 105.128906 390.839844 C 99.722656 400.417969 94.527344 410.109375 89.546875 419.914062 C 84.566406 429.71875 79.804688 439.628906 75.261719 449.644531 C 70.722656 459.660156 66.402344 469.769531 62.308594 479.976562 C 58.210938 490.183594 54.34375 500.476562 50.703125 510.851562 C 47.0625 521.230469 43.652344 531.683594 40.476562 542.210938 C 37.296875 552.738281 34.351562 563.332031 31.640625 573.988281 C 28.929688 584.648438 26.457031 595.359375 24.222656 606.128906 C 21.984375 616.894531 19.984375 627.707031 18.226562 638.5625 C 16.46875 649.417969 14.949219 660.308594 13.671875 671.230469 C 12.394531 682.152344 11.355469 693.097656 10.5625 704.066406 C 9.769531 715.035156 9.214844 726.015625 8.90625 737.011719 C 8.597656 748.003906 8.53125 758.996094 8.710938 769.992188 C 8.886719 780.988281 9.304688 791.976562 9.96875 802.953125 C 10.632812 813.929688 11.535156 824.886719 12.683594 835.824219 C 13.828125 846.761719 15.214844 857.671875 16.84375 868.546875 C 18.472656 879.421875 20.339844 890.257812 22.449219 901.050781 C 24.554688 911.84375 26.902344 922.585938 29.484375 933.277344 C 32.066406 943.964844 34.882812 954.59375 37.933594 965.160156 C 40.984375 975.722656 44.269531 986.21875 47.785156 996.636719 C 51.300781 1007.058594 55.042969 1017.394531 59.015625 1027.652344 C 62.988281 1037.90625 67.1875 1048.066406 71.609375 1058.136719 C 76.027344 1068.207031 80.671875 1078.171875 85.53125 1088.039062 C 90.394531 1097.902344 95.472656 1107.652344 100.765625 1117.292969 C 106.058594 1126.933594 111.558594 1136.453125 117.273438 1145.847656 C 122.988281 1155.246094 128.90625 1164.511719 135.027344 1173.644531 C 141.152344 1182.78125 147.472656 1191.777344 153.992188 1200.632812 C 160.515625 1209.488281 167.226562 1218.195312 174.132812 1226.753906 C 181.039062 1235.3125 188.128906 1243.71875 195.40625 1251.960938 C 202.683594 1260.207031 210.136719 1268.289062 217.769531 1276.207031 C 225.40625 1284.121094 233.210938 1291.867188 241.183594 1299.4375 C 249.160156 1307.007812 257.300781 1314.398438 265.601562 1321.613281 C 273.90625 1328.824219 282.363281 1335.847656 290.976562 1342.6875 C 299.589844 1349.523438 308.347656 1356.167969 317.257812 1362.621094 C 326.164062 1369.070312 335.207031 1375.320312 344.390625 1381.371094 C 353.574219 1387.425781 362.886719 1393.269531 372.328125 1398.910156 C 381.769531 1404.546875 391.328125 1409.976562 401.011719 1415.195312 C 410.691406 1420.410156 420.484375 1425.410156 430.386719 1430.195312 C 440.285156 1434.980469 450.289062 1439.542969 460.394531 1443.886719 C 470.496094 1448.226562 480.691406 1452.34375 490.976562 1456.238281 C 501.261719 1460.128906 511.628906 1463.792969 522.078125 1467.226562 C 559.40625 1473.199219 571.351562 1450.054688 571.351562 1429.898438 L 571.351562 1303.726562 C 364.554688 1348.523438 320.507812 1205.929688 320.507812 1205.929688 C 318.78125 1200.191406 316.800781 1194.542969 314.570312 1188.980469 C 312.339844 1183.421875 309.867188 1177.96875 307.148438 1172.632812 C 304.429688 1167.292969 301.476562 1162.085938 298.292969 1157.011719 C 295.105469 1151.933594 291.703125 1147.011719 288.078125 1142.242188 C 284.449219 1137.472656 280.621094 1132.875 276.582031 1128.445312 C 272.546875 1124.019531 268.320312 1119.78125 263.902344 1115.730469 C 259.488281 1111.683594 254.898438 1107.839844 250.136719 1104.199219 C 245.378906 1100.5625 240.464844 1097.144531 235.398438 1093.945312 C 167.460938 1047.65625 240.625 1049.152344 240.625 1049.152344 C 246.464844 1049.90625 252.242188 1050.988281 257.960938 1052.394531 C 263.679688 1053.800781 269.300781 1055.523438 274.824219 1057.5625 C 280.347656 1059.605469 285.742188 1061.949219 291 1064.59375 C 296.261719 1067.242188 301.355469 1070.179688 306.285156 1073.398438 C 311.214844 1076.621094 315.945312 1080.109375 320.480469 1083.863281 C 325.019531 1087.621094 329.328125 1091.617188 333.414062 1095.859375 C 337.5 1100.097656 341.335938 1104.554688 344.917969 1109.230469 C 348.503906 1113.902344 351.8125 1118.761719 354.847656 1123.808594 C 356.128906 1126.082031 357.460938 1128.324219 358.851562 1130.535156 C 360.242188 1132.746094 361.683594 1134.921875 363.179688 1137.0625 C 364.675781 1139.203125 366.222656 1141.304688 367.820312 1143.371094 C 369.417969 1145.433594 371.066406 1147.460938 372.761719 1149.445312 C 374.457031 1151.429688 376.203125 1153.371094 377.996094 1155.269531 C 379.785156 1157.167969 381.625 1159.023438 383.503906 1160.832031 C 385.386719 1162.640625 387.3125 1164.40625 389.28125 1166.121094 C 391.25 1167.835938 393.257812 1169.503906 395.308594 1171.121094 C 397.355469 1172.738281 399.445312 1174.304688 401.570312 1175.820312 C 403.695312 1177.335938 405.859375 1178.800781 408.054688 1180.210938 C 410.253906 1181.621094 412.484375 1182.976562 414.746094 1184.277344 C 417.011719 1185.578125 419.304688 1186.824219 421.628906 1188.011719 C 423.953125 1189.203125 426.304688 1190.335938 428.683594 1191.410156 C 431.0625 1192.484375 433.46875 1193.5 435.898438 1194.457031 C 438.328125 1195.414062 440.777344 1196.3125 443.25 1197.148438 C 445.722656 1197.988281 448.214844 1198.765625 450.726562 1199.480469 C 453.238281 1200.195312 455.761719 1200.851562 458.304688 1201.445312 C 460.847656 1202.035156 463.40625 1202.566406 465.972656 1203.035156 C 468.542969 1203.503906 471.121094 1203.910156 473.707031 1204.25 C 476.296875 1204.59375 478.890625 1204.871094 481.496094 1205.089844 C 484.097656 1205.304688 486.703125 1205.457031 489.3125 1205.542969 C 491.921875 1205.632812 494.53125 1205.65625 497.140625 1205.617188 C 499.753906 1205.578125 502.359375 1205.476562 504.964844 1205.3125 C 507.570312 1205.144531 510.171875 1204.914062 512.765625 1204.621094 C 515.359375 1204.328125 517.945312 1203.972656 520.523438 1203.554688 C 523.101562 1203.132812 525.667969 1202.652344 528.21875 1202.109375 C 530.773438 1201.5625 533.3125 1200.957031 535.835938 1200.289062 C 538.359375 1199.621094 540.867188 1198.890625 543.355469 1198.101562 C 545.84375 1197.308594 548.3125 1196.460938 550.757812 1195.546875 C 553.203125 1194.636719 555.628906 1193.667969 558.027344 1192.636719 C 560.425781 1191.609375 562.800781 1190.523438 565.144531 1189.375 C 567.492188 1188.230469 569.808594 1187.03125 572.097656 1185.773438 C 572.519531 1181.085938 573.144531 1176.429688 573.972656 1171.796875 C 574.800781 1167.167969 575.832031 1162.582031 577.058594 1158.039062 C 578.289062 1153.5 579.714844 1149.019531 581.339844 1144.605469 C 582.960938 1140.191406 584.773438 1135.851562 586.773438 1131.597656 C 588.777344 1127.339844 590.960938 1123.175781 593.324219 1119.109375 C 595.691406 1115.042969 598.230469 1111.089844 600.941406 1107.246094 C 603.652344 1103.402344 606.527344 1099.683594 609.566406 1096.089844 C 612.601562 1092.5 615.792969 1089.046875 619.132812 1085.730469 C 459.367188 1069.308594 281.683594 1005.105469 281.683594 720.664062 C 281.417969 711.453125 281.589844 702.25 282.207031 693.054688 C 282.820312 683.859375 283.871094 674.714844 285.359375 665.621094 C 286.847656 656.523438 288.765625 647.523438 291.117188 638.613281 C 293.46875 629.699219 296.238281 620.921875 299.429688 612.277344 C 302.617188 603.632812 306.214844 595.160156 310.214844 586.855469 C 314.214844 578.554688 318.605469 570.464844 323.378906 562.582031 C 328.15625 554.699219 333.296875 547.066406 338.800781 539.675781 C 344.308594 532.285156 350.15625 525.175781 356.339844 518.34375 C 353.53125 510.402344 351.101562 502.347656 349.054688 494.175781 C 347.007812 486.007812 345.347656 477.757812 344.082031 469.429688 C 342.8125 461.105469 341.941406 452.734375 341.464844 444.324219 C 340.988281 435.914062 340.910156 427.503906 341.226562 419.085938 C 341.546875 410.667969 342.261719 402.285156 343.375 393.933594 C 344.484375 385.585938 345.988281 377.304688 347.882812 369.097656 C 349.777344 360.890625 352.054688 352.792969 354.714844 344.800781 C 357.375 336.808594 360.40625 328.957031 363.804688 321.253906 C 363.804688 321.253906 426.519531 301.09375 569.109375 395.910156 C 584.3125 391.824219 599.628906 388.238281 615.0625 385.160156 C 630.496094 382.078125 646.015625 379.507812 661.621094 377.449219 C 677.226562 375.386719 692.878906 373.839844 708.585938 372.808594 C 724.289062 371.777344 740.011719 371.257812 755.75 371.257812 C 771.492188 371.257812 787.214844 371.777344 802.917969 372.808594 C 818.625 373.839844 834.277344 375.386719 849.882812 377.449219 C 865.484375 379.507812 881.003906 382.078125 896.441406 385.160156 C 911.875 388.238281 927.191406 391.824219 942.390625 395.910156 C 1084.984375 299.601562 1147.695312 321.253906 1147.695312 321.253906 C 1151.097656 328.957031 1154.128906 336.808594 1156.789062 344.800781 C 1159.449219 352.792969 1161.726562 360.890625 1163.621094 369.097656 C 1165.515625 377.304688 1167.019531 385.585938 1168.128906 393.933594 C 1169.242188 402.285156 1169.957031 410.667969 1170.273438 419.085938 C 1170.59375 427.503906 1170.515625 435.914062 1170.039062 444.324219 C 1169.5625 452.734375 1168.691406 461.105469 1167.421875 469.429688 C 1166.15625 477.757812 1164.496094 486.007812 1162.449219 494.175781 C 1160.402344 502.347656 1157.972656 510.402344 1155.164062 518.34375 C 1161.347656 525.175781 1167.195312 532.285156 1172.699219 539.675781 C 1178.207031 547.066406 1183.347656 554.699219 1188.125 562.582031 C 1192.898438 570.464844 1197.285156 578.554688 1201.289062 586.855469 C 1205.289062 595.160156 1208.882812 603.632812 1212.074219 612.277344 C 1215.265625 620.921875 1218.035156 629.699219 1220.386719 638.613281 C 1222.734375 647.523438 1224.65625 656.523438 1226.144531 665.621094 C 1227.632812 674.714844 1228.683594 683.859375 1229.296875 693.054688 C 1229.914062 702.25 1230.085938 711.453125 1229.820312 720.664062 C 1229.820312 1005.851562 1055.125 1068.5625 888.640625 1087.226562 C 893.109375 1091.71875 897.328125 1096.4375 901.296875 1101.378906 C 905.261719 1106.320312 908.957031 1111.460938 912.375 1116.796875 C 915.792969 1122.132812 918.921875 1127.632812 921.753906 1133.304688 C 924.585938 1138.972656 927.109375 1144.777344 929.324219 1150.714844 C 931.539062 1156.652344 933.433594 1162.691406 935.003906 1168.832031 C 936.574219 1174.96875 937.816406 1181.175781 938.726562 1187.449219 C 939.636719 1193.71875 940.210938 1200.023438 940.449219 1206.355469 C 940.6875 1212.6875 940.589844 1219.015625 940.152344 1225.339844 L 940.152344 1429.898438 C 940.152344 1450.054688 952.097656 1473.945312 990.171875 1467.226562 C 1000.601562 1463.796875 1010.949219 1460.140625 1021.21875 1456.257812 C 1031.484375 1452.375 1041.660156 1448.265625 1051.75 1443.929688 C 1061.835938 1439.597656 1071.820312 1435.042969 1081.707031 1430.269531 C 1091.589844 1425.496094 1101.367188 1420.507812 1111.03125 1415.304688 C 1120.699219 1410.097656 1130.242188 1404.683594 1139.671875 1399.054688 C 1149.097656 1393.429688 1158.394531 1387.601562 1167.5625 1381.5625 C 1176.734375 1375.527344 1185.765625 1369.292969 1194.660156 1362.855469 C 1203.554688 1356.421875 1212.300781 1349.792969 1220.902344 1342.972656 C 1229.503906 1336.152344 1237.953125 1329.148438 1246.246094 1321.953125 C 1254.539062 1314.761719 1262.667969 1307.386719 1270.636719 1299.835938 C 1278.601562 1292.285156 1286.398438 1284.5625 1294.027344 1276.664062 C 1301.652344 1268.769531 1309.101562 1260.710938 1316.375 1252.484375 C 1323.644531 1244.261719 1330.730469 1235.878906 1337.632812 1227.34375 C 1344.535156 1218.804688 1351.246094 1210.121094 1357.761719 1201.289062 C 1364.28125 1192.453125 1370.601562 1183.484375 1376.722656 1174.371094 C 1382.847656 1165.257812 1388.765625 1156.015625 1394.480469 1146.644531 C 1400.195312 1137.269531 1405.699219 1127.777344 1410.996094 1118.160156 C 1416.292969 1108.542969 1421.375 1098.816406 1426.242188 1088.976562 C 1431.109375 1079.136719 1435.757812 1069.195312 1440.183594 1059.148438 C 1444.613281 1049.105469 1448.816406 1038.96875 1452.800781 1028.738281 C 1456.78125 1018.507812 1460.535156 1008.191406 1464.058594 997.796875 C 1467.585938 987.402344 1470.882812 976.933594 1473.945312 966.390625 C 1477.011719 955.851562 1479.839844 945.246094 1482.4375 934.578125 C 1485.035156 923.914062 1487.394531 913.195312 1489.519531 902.425781 C 1491.640625 891.65625 1493.527344 880.84375 1495.175781 869.988281 C 1496.820312 859.136719 1498.226562 848.25 1499.394531 837.335938 C 1500.5625 826.421875 1501.488281 815.484375 1502.171875 804.527344 C 1502.855469 793.570312 1503.296875 782.605469 1503.496094 771.628906 C 1503.699219 760.652344 1503.65625 749.679688 1503.375 738.703125 C 1503.089844 727.730469 1502.566406 716.765625 1501.796875 705.816406 C 1501.03125 694.867188 1500.023438 683.9375 1498.773438 673.03125 C 1497.523438 662.125 1496.035156 651.25 1494.304688 640.410156 C 1492.574219 629.570312 1490.609375 618.773438 1488.402344 608.019531 C 1486.199219 597.265625 1483.757812 586.5625 1481.078125 575.917969 C 1478.402344 565.269531 1475.492188 554.6875 1472.347656 544.171875 C 1469.203125 533.652344 1465.828125 523.210938 1462.222656 512.839844 C 1458.621094 502.472656 1454.789062 492.1875 1450.730469 481.988281 C 1446.671875 471.789062 1442.390625 461.683594 1437.886719 451.671875 C 1433.382812 441.660156 1428.660156 431.753906 1423.71875 421.949219 C 1418.777344 412.148438 1413.621094 402.457031 1408.253906 392.882812 C 1402.882812 383.308594 1397.304688 373.855469 1391.519531 364.523438 C 1385.734375 355.195312 1379.746094 346 1373.554688 336.933594 C 1367.363281 327.867188 1360.976562 318.945312 1354.390625 310.160156 C 1347.804688 301.378906 1341.03125 292.742188 1334.0625 284.257812 C 1327.097656 275.773438 1319.949219 267.449219 1312.617188 259.277344 C 1305.28125 251.109375 1297.773438 243.105469 1290.085938 235.269531 C 1282.398438 227.429688 1274.542969 219.765625 1266.519531 212.273438 C 1258.496094 204.78125 1250.308594 197.472656 1241.960938 190.34375 C 1233.617188 183.210938 1225.117188 176.269531 1216.460938 169.515625 C 1207.808594 162.757812 1199.011719 156.199219 1190.070312 149.832031 C 1181.125 143.464844 1172.046875 137.296875 1162.832031 131.328125 C 1153.617188 125.363281 1144.277344 119.601562 1134.808594 114.046875 C 1125.339844 108.492188 1115.753906 103.148438 1106.046875 98.019531 C 1096.34375 92.886719 1086.53125 87.972656 1076.609375 83.273438 C 1066.6875 78.574219 1056.667969 74.097656 1046.546875 69.839844 C 1036.429688 65.582031 1026.222656 61.550781 1015.925781 57.746094 C 1005.628906 53.9375 995.253906 50.359375 984.796875 47.011719 C 974.34375 43.664062 963.820312 40.546875 953.226562 37.664062 C 942.636719 34.777344 931.984375 32.128906 921.277344 29.714844 C 910.566406 27.296875 899.8125 25.121094 889.007812 23.179688 C 878.203125 21.242188 867.359375 19.539062 856.480469 18.078125 C 845.597656 16.617188 834.691406 15.394531 823.757812 14.414062 C 812.824219 13.433594 801.875 12.695312 790.90625 12.195312 C 779.941406 11.699219 768.96875 11.441406 757.992188 11.429688 Z M 757.992188 11.429688 " fill-opacity="1" fill-rule="nonzero"/></svg>