<svg xmlns="http://www.w3.org/2000/svg" xmlns:xlink="http://www.w3.org/1999/xlink" width="2000" zoomAndPan="magnify" viewBox="0 0 1500 1499.999933" height="2000" preserveAspectRatio="xMidYMid meet" version="1.0"><path fill="#0f0f0f" d="M 749.824219 1158.386719 C 975.46875 1158.386719 1158.386719 975.46875 1158.386719 749.824219 C 1158.386719 524.183594 975.46875 341.261719 749.824219 341.261719 C 524.183594 341.261719 341.261719 524.183594 341.261719 749.824219 C 341.261719 975.46875 524.183594 1158.386719 749.824219 1158.386719 Z M 749.824219 1022.199219 C 900.25 1022.199219 1022.199219 900.25 1022.199219 749.824219 C 1022.199219 599.398438 900.25 477.449219 749.824219 477.449219 C 599.398438 477.449219 477.449219 599.398438 477.449219 749.824219 C 477.449219 900.25 599.398438 1022.199219 749.824219 1022.199219 Z M 749.824219 1022.199219 " fill-opacity="1" fill-rule="evenodd"/><path fill="#0f0f0f" d="M 1158.386719 273.167969 C 1120.78125 273.167969 1090.292969 303.65625 1090.292969 341.261719 C 1090.292969 378.871094 1120.78125 409.355469 1158.386719 409.355469 C 1195.996094 409.355469 1226.480469 378.871094 1226.480469 341.261719 C 1226.480469 303.65625 1195.996094 273.167969 1158.386719 273.167969 Z M 1158.386719 273.167969 " fill-opacity="1" fill-rule="nonzero"/><path fill="#0f0f0f" d="M 45.324219 223.875 C 0.792969 311.269531 0.792969 425.679688 0.792969 654.496094 L 0.792969 845.15625 C 0.792969 1073.972656 0.792969 1188.382812 45.324219 1275.773438 C 84.496094 1352.652344 146.996094 1415.15625 223.875 1454.324219 C 311.269531 1498.855469 425.679688 1498.855469 654.496094 1498.855469 L 845.15625 1498.855469 C 1073.972656 1498.855469 1188.382812 1498.855469 1275.773438 1454.324219 C 1352.652344 1415.15625 1415.15625 1352.652344 1454.324219 1275.773438 C 1498.855469 1188.382812 1498.855469 1073.972656 1498.855469 845.15625 L 1498.855469 654.496094 C 1498.855469 425.679688 1498.855469 311.269531 1454.324219 223.875 C 1415.15625 146.996094 1352.652344 84.496094 1275.773438 45.324219 C 1188.382812 0.792969 1073.972656 0.792969 845.15625 0.792969 L 654.496094 0.792969 C 425.679688 0.792969 311.269531 0.792969 223.875 45.324219 C 146.996094 84.496094 84.496094 146.996094 45.324219 223.875 Z M 845.15625 136.980469 L 654.496094 136.980469 C 537.839844 136.980469 458.539062 137.085938 397.242188 142.09375 C 337.535156 146.972656 307 155.816406 285.703125 166.667969 C 234.449219 192.78125 192.78125 234.449219 166.667969 285.699219 C 155.816406 307 146.972656 337.535156 142.09375 397.242188 C 137.089844 458.539062 136.980469 537.839844 136.980469 654.496094 L 136.980469 845.15625 C 136.980469 961.816406 137.089844 1041.109375 142.09375 1102.40625 C 146.972656 1162.121094 155.816406 1192.652344 166.667969 1213.953125 C 192.78125 1265.199219 234.449219 1306.867188 285.703125 1332.980469 C 307 1343.835938 337.535156 1352.679688 397.242188 1357.554688 C 458.539062 1362.558594 537.839844 1362.667969 654.496094 1362.667969 L 845.15625 1362.667969 C 961.816406 1362.667969 1041.109375 1362.558594 1102.40625 1357.554688 C 1162.121094 1352.679688 1192.652344 1343.835938 1213.953125 1332.980469 C 1265.199219 1306.867188 1306.867188 1265.199219 1332.980469 1213.953125 C 1343.835938 1192.652344 1352.679688 1162.121094 1357.554688 1102.40625 C 1362.558594 1041.109375 1362.667969 961.816406 1362.667969 845.15625 L 1362.667969 654.496094 C 1362.667969 537.839844 1362.558594 458.539062 1357.554688 397.242188 C 1352.679688 337.535156 1343.835938 307 1332.980469 285.699219 C 1306.867188 234.449219 1265.199219 192.78125 1213.953125 166.667969 C 1192.652344 155.816406 1162.121094 146.972656 1102.40625 142.09375 C 1041.109375 137.085938 961.816406 136.980469 845.15625 136.980469 Z M 845.15625 136.980469 " fill-opacity="1" fill-rule="evenodd"/></svg>