<svg xmlns="http://www.w3.org/2000/svg" xmlns:xlink="http://www.w3.org/1999/xlink" width="2000" zoomAndPan="magnify" viewBox="0 0 1500 1499.999933" height="2000" preserveAspectRatio="xMidYMid meet" version="1.0"><path fill="#000000" d="M 1364.3125 0 L 135.6875 0 C 60.75 0 0 60.75 0 135.6875 L 0 1364.308594 C 0 1439.25 60.75 1500 135.6875 1500 L 1364.308594 1500 C 1439.25 1500 1500 1439.25 1500 1364.308594 L 1500 135.6875 C 1500 60.75 1439.25 0 1364.3125 0 Z M 464.164062 1295.199219 C 464.164062 1317.007812 446.484375 1334.6875 424.675781 1334.6875 L 256.589844 1334.6875 C 234.78125 1334.6875 217.101562 1317.007812 217.101562 1295.199219 L 217.101562 590.585938 C 217.101562 568.777344 234.78125 551.101562 256.589844 551.101562 L 424.675781 551.101562 C 446.484375 551.101562 464.164062 568.777344 464.164062 590.585938 Z M 340.632812 484.679688 C 252.445312 484.679688 180.949219 413.1875 180.949219 324.996094 C 180.949219 236.808594 252.445312 165.3125 340.632812 165.3125 C 428.824219 165.3125 500.316406 236.808594 500.316406 324.996094 C 500.316406 413.1875 428.828125 484.679688 340.632812 484.679688 Z M 1342.578125 1298.378906 C 1342.578125 1318.429688 1326.320312 1334.6875 1306.273438 1334.6875 L 1125.902344 1334.6875 C 1105.851562 1334.6875 1089.597656 1318.429688 1089.597656 1298.378906 L 1089.597656 967.875 C 1089.597656 918.574219 1104.058594 751.824219 960.75 751.824219 C 849.589844 751.824219 827.042969 865.960938 822.515625 917.179688 L 822.515625 1298.378906 C 822.515625 1318.429688 806.261719 1334.6875 786.207031 1334.6875 L 611.761719 1334.6875 C 591.710938 1334.6875 575.453125 1318.429688 575.453125 1298.378906 L 575.453125 587.40625 C 575.453125 567.355469 591.710938 551.101562 611.761719 551.101562 L 786.207031 551.101562 C 806.257812 551.101562 822.515625 567.355469 822.515625 587.40625 L 822.515625 648.878906 C 863.734375 587.023438 924.988281 539.277344 1055.414062 539.277344 C 1344.230469 539.277344 1342.578125 809.105469 1342.578125 957.359375 Z M 1342.578125 1298.378906 " fill-opacity="1" fill-rule="nonzero"/></svg>