<svg xmlns="http://www.w3.org/2000/svg" xmlns:xlink="http://www.w3.org/1999/xlink" width="2000" zoomAndPan="magnify" viewBox="0 0 1500 1499.999933" height="2000" preserveAspectRatio="xMidYMid meet" version="1.0"><defs><clipPath id="6108305ce4"><path d="M 750 0 C 335.785156 0 0 335.785156 0 750 C 0 1164.214844 335.785156 1500 750 1500 C 1164.214844 1500 1500 1164.214844 1500 750 C 1500 335.785156 1164.214844 0 750 0 Z M 750 0 " clip-rule="nonzero"/></clipPath><clipPath id="0b268167c6"><path d="M 0 0 L 1500 0 L 1500 1500 L 0 1500 Z M 0 0 " clip-rule="nonzero"/></clipPath><clipPath id="b0fbc3c75c"><path d="M 750 0 C 335.785156 0 0 335.785156 0 750 C 0 1164.214844 335.785156 1500 750 1500 C 1164.214844 1500 1500 1164.214844 1500 750 C 1500 335.785156 1164.214844 0 750 0 Z M 750 0 " clip-rule="nonzero"/></clipPath><clipPath id="337fb27440"><rect x="0" width="1500" y="0" height="1500"/></clipPath><clipPath id="4396b0df93"><path d="M 154.023438 756.542969 L 1104.949219 756.542969 L 1104.949219 1140.515625 L 154.023438 1140.515625 Z M 154.023438 756.542969 " clip-rule="nonzero"/></clipPath><clipPath id="6d218ef453"><path d="M 912.523438 756.542969 C 1018.554688 756.542969 1104.511719 842.5 1104.511719 948.53125 C 1104.511719 1054.5625 1018.554688 1140.515625 912.523438 1140.515625 L 346.007812 1140.515625 C 239.976562 1140.515625 154.023438 1054.5625 154.023438 948.53125 C 154.023438 842.5 239.976562 756.542969 346.007812 756.542969 Z M 912.523438 756.542969 " clip-rule="nonzero"/></clipPath><clipPath id="b56fed7673"><path d="M 0.0234375 0.542969 L 950.71875 0.542969 L 950.71875 384.515625 L 0.0234375 384.515625 Z M 0.0234375 0.542969 " clip-rule="nonzero"/></clipPath><clipPath id="43ed40facd"><path d="M 758.523438 0.542969 C 864.554688 0.542969 950.511719 86.5 950.511719 192.53125 C 950.511719 298.5625 864.554688 384.515625 758.523438 384.515625 L 192.007812 384.515625 C 85.976562 384.515625 0.0234375 298.5625 0.0234375 192.53125 C 0.0234375 86.5 85.976562 0.542969 192.007812 0.542969 Z M 758.523438 0.542969 " clip-rule="nonzero"/></clipPath><clipPath id="63af2602bb"><rect x="0" width="951" y="0" height="385"/></clipPath><clipPath id="c7ef924cfd"><path d="M 399.511719 373.136719 L 1350 373.136719 L 1350 757.109375 L 399.511719 757.109375 Z M 399.511719 373.136719 " clip-rule="nonzero"/></clipPath><clipPath id="890e51913f"><path d="M 1158.015625 373.136719 C 1264.046875 373.136719 1350 459.09375 1350 565.125 C 1350 671.15625 1264.046875 757.109375 1158.015625 757.109375 L 591.496094 757.109375 C 485.464844 757.109375 399.511719 671.15625 399.511719 565.125 C 399.511719 459.09375 485.464844 373.136719 591.496094 373.136719 Z M 1158.015625 373.136719 " clip-rule="nonzero"/></clipPath><clipPath id="54e56f559f"><path d="M 0.511719 0.136719 L 951 0.136719 L 951 384.109375 L 0.511719 384.109375 Z M 0.511719 0.136719 " clip-rule="nonzero"/></clipPath><clipPath id="35ec7360dd"><path d="M 759.015625 0.136719 C 865.046875 0.136719 951 86.09375 951 192.125 C 951 298.15625 865.046875 384.109375 759.015625 384.109375 L 192.496094 384.109375 C 86.464844 384.109375 0.511719 298.15625 0.511719 192.125 C 0.511719 86.09375 86.464844 0.136719 192.496094 0.136719 Z M 759.015625 0.136719 " clip-rule="nonzero"/></clipPath><clipPath id="30ce5cb317"><rect x="0" width="951" y="0" height="385"/></clipPath><clipPath id="3334f7e749"><path d="M 526.722656 530.769531 L 978.972656 530.769531 L 978.972656 983 L 526.722656 983 Z M 526.722656 530.769531 " clip-rule="nonzero"/></clipPath></defs><g clip-path="url(#6108305ce4)"><g transform="matrix(1, 0, 0, 1, 0, 0.000000000000112861)"><g clip-path="url(#337fb27440)"><g clip-path="url(#0b268167c6)"><g clip-path="url(#b0fbc3c75c)"><rect x="-330" width="2160" fill="#000000" height="2159.999904" y="-329.999985" fill-opacity="1"/></g></g></g></g></g><g clip-path="url(#4396b0df93)"><g clip-path="url(#6d218ef453)"><g transform="matrix(1, 0, 0, 1, 154, 756)"><g clip-path="url(#63af2602bb)"><g clip-path="url(#b56fed7673)"><g clip-path="url(#43ed40facd)"><path fill="#ffffff" d="M 0.0234375 0.542969 L 950.949219 0.542969 L 950.949219 384.515625 L 0.0234375 384.515625 Z M 0.0234375 0.542969 " fill-opacity="1" fill-rule="nonzero"/></g></g></g></g></g></g><g clip-path="url(#c7ef924cfd)"><g clip-path="url(#890e51913f)"><g transform="matrix(1, 0, 0, 1, 399, 373)"><g clip-path="url(#30ce5cb317)"><g clip-path="url(#54e56f559f)"><g clip-path="url(#35ec7360dd)"><path fill="#ffffff" d="M 0.511719 0.136719 L 951.441406 0.136719 L 951.441406 384.109375 L 0.511719 384.109375 Z M 0.511719 0.136719 " fill-opacity="1" fill-rule="nonzero"/></g></g></g></g></g></g><g clip-path="url(#3334f7e749)"><path fill="#000000" d="M 978.832031 756.824219 C 782.128906 756.824219 752.777344 786.222656 752.777344 982.878906 C 752.777344 786.222656 723.429688 756.824219 526.722656 756.824219 C 723.429688 756.824219 752.777344 727.425781 752.777344 530.769531 C 752.777344 727.472656 782.175781 756.824219 978.832031 756.824219 Z M 978.832031 756.824219 " fill-opacity="1" fill-rule="nonzero"/></g></svg>